<svg width="22" height="22" viewBox="0 0 22 22" fill="none" xmlns="http://www.w3.org/2000/svg">
<path fill-rule="evenodd" clip-rule="evenodd" d="M6.69806 1.146C5.96381 1.146 5.46056 1.146 5.0114 1.26791C4.54653 1.3955 4.11369 1.61943 3.74099 1.92517C3.36829 2.23091 3.06406 2.61162 2.84806 3.04258C2.63998 3.45691 2.5419 3.951 2.39798 4.6715L1.82965 7.51133C1.72899 8.00916 1.73872 8.523 1.85813 9.01666C1.97755 9.51032 2.20375 9.9718 2.52081 10.3686V12.8848C2.52081 14.5697 2.52081 15.9043 2.66106 16.9484C2.8059 18.0227 3.11023 18.8927 3.7959 19.5792C4.48156 20.2649 5.35148 20.5692 6.42673 20.7141C7.47081 20.8543 8.80548 20.8543 10.4894 20.8543H11.5096C13.1945 20.8543 14.5291 20.8543 15.5732 20.7141C16.6476 20.5692 17.5175 20.2649 18.2041 19.5792C18.8897 18.8927 19.1941 18.0227 19.3389 16.9484C19.4791 15.9034 19.4791 14.5697 19.4791 12.8848V10.3695C19.7962 9.97253 20.0223 9.51087 20.1415 9.01704C20.2608 8.52321 20.2703 8.00923 20.1694 7.51133L19.6011 4.6715C19.4581 3.951 19.3591 3.45691 19.1519 3.04258C18.9358 2.61152 18.6314 2.23075 18.2586 1.92501C17.8857 1.61926 17.4527 1.39538 16.9876 1.26791C16.5394 1.146 16.0361 1.146 15.301 1.146H6.69806ZM16.7456 11.6877C17.2122 11.6885 17.6742 11.5956 18.1041 11.4145V12.8335C18.1041 14.5816 18.1023 15.8237 17.9758 16.766C17.8521 17.6872 17.6192 18.2189 17.2315 18.6067C16.8437 18.9944 16.3121 19.2272 15.389 19.351C14.921 19.4091 14.4505 19.4439 13.9791 19.4555V16.9292C13.9791 16.5258 13.9791 16.1775 13.9535 15.8933C13.926 15.5908 13.8655 15.292 13.7023 15.0106C13.5215 14.697 13.2613 14.4365 12.9479 14.2552C12.6665 14.093 12.3676 14.0325 12.0651 14.005C11.781 13.9793 11.4326 13.9793 11.0293 13.9793H10.9697C10.5664 13.9793 10.219 13.9793 9.9339 14.005C9.6314 14.0325 9.33348 14.093 9.05206 14.2552C8.73832 14.4363 8.47781 14.6968 8.29673 15.0106C8.13448 15.292 8.07398 15.5908 8.04648 15.8924C8.02081 16.1784 8.02081 16.5258 8.02081 16.9282V19.4555C7.54882 19.444 7.07769 19.4091 6.60915 19.351C5.6879 19.2272 5.15623 18.9944 4.76848 18.6067C4.37981 18.2189 4.1479 17.6872 4.02415 16.7651C3.89673 15.8237 3.89581 14.5816 3.89581 12.8335V11.4145C4.62833 11.724 5.44457 11.774 6.2094 11.5563C6.97423 11.3386 7.64176 10.8662 8.10148 10.2173C8.43449 10.6736 8.87066 11.0446 9.37439 11.3001C9.87812 11.5557 10.4351 11.6884 11 11.6877C11.5648 11.6884 12.1218 11.5557 12.6256 11.3001C13.1293 11.0446 13.5655 10.6736 13.8985 10.2173C14.2211 10.672 14.648 11.0428 15.1433 11.2986C15.6387 11.5544 16.1881 11.6878 16.7456 11.6877ZM9.39581 19.4775C9.75148 19.4793 10.1328 19.4793 10.5416 19.4793H11.4583C11.8671 19.4793 12.2476 19.4793 12.6041 19.4775V16.9585C12.6041 16.5176 12.6032 16.2325 12.584 16.0171C12.5656 15.8108 12.5336 15.7357 12.5116 15.6981C12.4513 15.5938 12.3647 15.5072 12.2604 15.4469C12.2228 15.4249 12.1476 15.3937 11.9414 15.3745C11.628 15.3552 11.3139 15.3485 11 15.3543C10.5591 15.3543 10.274 15.3543 10.0586 15.3745C9.8514 15.3928 9.77715 15.4249 9.73956 15.4469C9.63495 15.5071 9.54801 15.5937 9.48748 15.6981C9.4664 15.7347 9.43431 15.8108 9.41598 16.0171C9.39673 16.2325 9.39581 16.5176 9.39581 16.9585V19.4775ZM7.94748 2.521H6.79981C5.92531 2.521 5.6219 2.52741 5.37623 2.59433C5.09736 2.67082 4.83769 2.80509 4.61407 2.98844C4.39045 3.17179 4.20789 3.40011 4.07823 3.65858C3.96365 3.88683 3.89856 4.182 3.72715 5.04L3.17898 7.78083C3.12056 8.06284 3.12028 8.3538 3.17815 8.63592C3.23603 8.91804 3.35085 9.18539 3.51558 9.42161C3.68032 9.65784 3.89151 9.85798 4.13624 10.0098C4.38098 10.1616 4.6541 10.2619 4.93893 10.3045C5.22375 10.3472 5.51427 10.3313 5.79274 10.2578C6.0712 10.1843 6.33174 10.0548 6.55844 9.87717C6.78514 9.69955 6.97322 9.47755 7.11118 9.22475C7.24914 8.97195 7.33408 8.69366 7.36081 8.40691L7.42406 7.77808L7.42773 7.73958L7.94931 2.521H7.94748ZM8.79173 7.90641L9.33073 2.521H12.6692L13.2046 7.87616C13.2346 8.18258 13.2004 8.49188 13.1042 8.78435C13.008 9.07681 12.8519 9.34601 12.6458 9.57479C12.4398 9.80356 12.1883 9.98687 11.9075 10.113C11.6266 10.2392 11.3226 10.3055 11.0147 10.3076C10.7068 10.3097 10.4019 10.2476 10.1194 10.1253C9.83682 10.003 9.58287 9.82314 9.37371 9.59722C9.16455 9.37129 9.00477 9.10425 8.90457 8.81313C8.80436 8.52202 8.76593 8.21321 8.79173 7.90641ZM16.6237 2.59433C16.3781 2.52741 16.0746 2.521 15.2001 2.521H14.0506L14.6401 8.406C14.6677 8.69192 14.7532 8.96924 14.8914 9.22106C15.0296 9.47288 15.2176 9.69392 15.444 9.87074C15.6704 10.0476 15.9304 10.1764 16.2082 10.2495C16.486 10.3227 16.7758 10.3384 17.0599 10.296C17.344 10.2535 17.6164 10.1536 17.8607 10.0025C18.105 9.85129 18.3159 9.65198 18.4807 9.41668C18.6454 9.18137 18.7606 8.91499 18.8191 8.63376C18.8776 8.35252 18.8782 8.06232 18.821 7.78083L18.2737 5.04C18.1014 4.182 18.0363 3.88683 17.9226 3.65858C17.7929 3.40001 17.6102 3.17163 17.3864 2.98828C17.1626 2.80493 16.9028 2.6707 16.6237 2.59433Z" fill="#FF7622"/>
</svg>
