<svg width="15" height="15" viewBox="0 0 15 15" fill="none" xmlns="http://www.w3.org/2000/svg">
<path d="M11.4679 4.84028H9.43869V2.9668L8.3158 1.84562H6.06916L4.94542 2.9668V4.84113H2.91617L2.54901 12.0749C2.53882 12.2528 2.56523 12.4309 2.62659 12.5982C2.68795 12.7655 2.78297 12.9185 2.90577 13.0476C3.02857 13.1767 3.17655 13.2793 3.34056 13.349C3.50457 13.4187 3.68113 13.454 3.85933 13.4528H10.5248C10.703 13.4542 10.8796 13.4189 11.0437 13.3493C11.2078 13.2796 11.3558 13.177 11.4786 13.0479C11.6014 12.9187 11.6965 12.7657 11.7578 12.5983C11.8191 12.431 11.8454 12.2528 11.8351 12.0749L11.4679 4.84028ZM6.06916 2.9668H8.3158V4.84113H6.06916V2.9668ZM10.6583 12.27C10.6411 12.2885 10.6203 12.3034 10.5972 12.3137C10.5741 12.324 10.5492 12.3295 10.5239 12.3299H3.85933C3.81038 12.3278 3.76401 12.3074 3.72944 12.2726C3.69488 12.2379 3.67464 12.1914 3.67275 12.1425L3.97915 5.97173H10.405L10.7122 12.1425C10.7113 12.1902 10.6915 12.2358 10.6583 12.27Z" fill="#FF7622"/>
</svg>
