<svg width="16" height="17" viewBox="0 0 16 17" fill="none" xmlns="http://www.w3.org/2000/svg">
<path d="M12.6673 4.95833C12.6673 4.58261 12.5268 4.22227 12.2768 3.9566C12.0267 3.69092 11.6876 3.54166 11.334 3.54166H9.33398V4.95833H11.334V6.83541L9.00065 9.91666H6.66732V6.375H4.00065C2.52732 6.375 1.33398 7.64291 1.33398 9.20833V11.3333H2.66732C2.66732 12.5092 3.56065 13.4583 4.66732 13.4583C5.77398 13.4583 6.66732 12.5092 6.66732 11.3333H9.66732L12.6673 7.33125V4.95833ZM4.66732 12.0417C4.30065 12.0417 4.00065 11.7229 4.00065 11.3333H5.33398C5.33398 11.7229 5.03398 12.0417 4.66732 12.0417ZM5.33398 9.91666H2.66732V9.20833C2.66732 8.42916 3.26732 7.79166 4.00065 7.79166H5.33398V9.91666ZM12.6673 9.20833C11.5607 9.20833 10.6673 10.1575 10.6673 11.3333C10.6673 12.5092 11.5607 13.4583 12.6673 13.4583C13.774 13.4583 14.6673 12.5092 14.6673 11.3333C14.6673 10.1575 13.774 9.20833 12.6673 9.20833ZM12.6673 12.0417C12.3007 12.0417 12.0007 11.7229 12.0007 11.3333C12.0007 10.9437 12.3007 10.625 12.6673 10.625C13.034 10.625 13.334 10.9437 13.334 11.3333C13.334 11.7229 13.034 12.0417 12.6673 12.0417ZM6.66732 5.66666H3.33398V4.25H6.66732V5.66666Z" fill="#FF7622"/>
</svg>
