<svg width="82" height="82" viewBox="0 0 82 82" fill="none" xmlns="http://www.w3.org/2000/svg">
<g clip-path="url(#clip0_2_332)">
<path d="M77.6027 13.9297C76.6417 12.7764 75.4385 11.8488 74.0786 11.2129C72.7187 10.5769 71.2354 10.2482 69.7342 10.25H14.4935L14.35 9.05075C14.0563 6.55801 12.8582 4.25967 10.9828 2.59147C9.10745 0.923263 6.68514 0.00116779 4.17517 0L3.41667 0C2.51051 0 1.64147 0.359969 1.00072 1.00072C0.359969 1.64147 0 2.51051 0 3.41667C0 4.32282 0.359969 5.19187 1.00072 5.83261C1.64147 6.47336 2.51051 6.83333 3.41667 6.83333H4.17517C5.01202 6.83344 5.81973 7.14068 6.4451 7.69678C7.07047 8.25287 7.47 9.01914 7.56791 9.85025L12.2692 49.8252C12.7573 53.9826 14.7548 57.8161 17.8825 60.598C21.0102 63.38 25.0505 64.9168 29.2364 64.9167H64.9167C65.8228 64.9167 66.6919 64.5567 67.3326 63.9159C67.9734 63.2752 68.3333 62.4062 68.3333 61.5C68.3333 60.5938 67.9734 59.7248 67.3326 59.084C66.6919 58.4433 65.8228 58.0833 64.9167 58.0833H29.2364C27.1217 58.0774 25.0606 57.4175 23.3356 56.1941C21.6107 54.9708 20.3063 53.2438 19.6014 51.25H60.3281C64.3334 51.2502 68.2115 49.8431 71.2847 47.2745C74.358 44.7059 76.4309 41.139 77.1415 37.1972L79.8236 22.3211C80.0913 20.8451 80.0311 19.3283 79.6473 17.8782C79.2635 16.428 78.5655 15.0801 77.6027 13.9297V13.9297ZM73.1167 21.1082L70.4312 35.9843C70.0045 38.3521 68.7586 40.4943 66.9115 42.0359C65.0644 43.5775 62.7339 44.4203 60.3281 44.4167H18.5149L15.2998 17.0833H69.7342C70.2361 17.0803 70.7325 17.188 71.1881 17.3985C71.6437 17.6091 72.0473 17.9175 72.3702 18.3017C72.6931 18.686 72.9274 19.1367 73.0564 19.6217C73.1854 20.1068 73.206 20.6143 73.1167 21.1082V21.1082Z" fill="#FC6A57"/>
<path d="M23.9134 82C27.6874 82 30.7467 78.9406 30.7467 75.1666C30.7467 71.3927 27.6874 68.3333 23.9134 68.3333C20.1395 68.3333 17.0801 71.3927 17.0801 75.1666C17.0801 78.9406 20.1395 82 23.9134 82Z" fill="#FC6A57"/>
<path d="M58.0833 82C61.8573 82 64.9167 78.9406 64.9167 75.1666C64.9167 71.3927 61.8573 68.3333 58.0833 68.3333C54.3094 68.3333 51.25 71.3927 51.25 75.1666C51.25 78.9406 54.3094 82 58.0833 82Z" fill="#FC6A57"/>
</g>
<defs>
<clipPath id="clip0_2_332">
<rect width="82" height="82" fill="white"/>
</clipPath>
</defs>
</svg>
