<svg xmlns="http://www.w3.org/2000/svg" xmlns:xlink="http://www.w3.org/1999/xlink" fill="none" version="1.1" width="66" height="20" viewBox="0 0 66 20"><defs><linearGradient x1="66" y1="0" x2="0" y2="20" gradientUnits="userSpaceOnUse" id="master_svg0_1_03046"><stop offset="0%" stop-color="#70B6FF" stop-opacity="1"/><stop offset="54.77428436279297%" stop-color="#C2BFFF" stop-opacity="1"/><stop offset="100%" stop-color="#FACBFF" stop-opacity="1"/></linearGradient></defs><g><path d="M3.02083,4.99479L8.46354,4.99479L8.46354,3.84375L3.83854,3.84375C3.96354,3.61979,4.10938,3.375,4.23958,3.13542L2.85938,2.83333C2.20312,3.98438,1.45312,4.88021,0.604167,5.52083L1.46875,6.54688C1.63021,6.40104,1.80729,6.25521,1.97917,6.09896C1.94792,6.5,1.90104,6.89583,1.85417,7.29688L0.75,7.29688L0.75,8.33854L1.72396,8.33854C1.64583,8.93229,1.55208,9.52083,1.45312,10.1146L6.01562,10.1146L5.91667,10.4479C5.24479,10.8021,4.58854,11.0885,3.94792,11.3281C3.70833,11.4271,3.29167,11.474,2.70312,11.474L2.95833,12.6406L6.38021,12.5156C5.19792,12.9948,4.09375,13.3281,3.03646,13.5521C2.58854,13.5521,2.15625,13.5365,1.70833,13.5052L2.0625,14.8646C3.67708,14.8177,5.42188,14.7552,7.29167,14.6562L7.29167,16C7.29167,16.2917,7.13542,16.4531,6.82812,16.4531C6.41146,16.4531,5.98438,16.4167,5.53646,16.3698L5.82292,17.6979L7.27604,17.6979C8.33333,17.6979,8.86458,17.25,8.86458,16.3542L8.86458,14.5781C10.0781,14.5156,11.3438,14.4323,12.6875,14.3542C13.1042,14.7083,13.4844,15.0417,13.8385,15.3802L15.151,14.4844C14.3177,13.7448,13.1354,12.8958,11.599,11.9375L10.4479,12.6719C10.7969,12.8958,11.1354,13.1562,11.4688,13.4115C9.59896,13.5365,7.67708,13.651,5.72396,13.7292C7.85417,13.1198,9.79167,12.3229,11.5208,11.3281L10.349,10.5625C9.66146,10.9479,8.98958,11.3125,8.33333,11.651C7.3125,11.6823,6.28646,11.7292,5.24479,11.7604C6.10938,11.474,6.94271,11.1198,7.73958,10.724L7.27604,10.3698C7.3125,10.2917,7.32812,10.2083,7.35938,10.1146L8.15625,10.1146L8.15625,9.26562L7.55208,9.26562C7.59896,8.97917,7.64583,8.67188,7.67708,8.33854L8.65625,8.33854L8.65625,7.29688L7.76042,7.29688C7.79167,6.77083,7.80729,6.19271,7.80729,5.56771L2.52604,5.56771C2.6875,5.38021,2.85938,5.1875,3.02083,4.99479ZM3.06771,8.19271L3.88542,8.19271L3.55208,8.70833C4.09375,8.83333,4.61979,9.02604,5.16667,9.26562L2.89583,9.26562C2.95833,8.91146,3.00521,8.54688,3.06771,8.19271ZM5.30729,9.26562L5.66146,8.72396C5.21354,8.53125,4.70312,8.35417,4.15625,8.19271L6.41146,8.19271C6.36458,8.54688,6.30208,8.91146,6.23958,9.26562L5.30729,9.26562ZM6.47917,7.47396L5.48438,7.47396L5.80729,6.97917C5.35938,6.75521,4.85938,6.5625,4.34896,6.40104L6.52604,6.40104L6.47917,7.47396ZM4.15625,6.40104L3.79167,6.93229C4.27083,7.05729,4.73438,7.25,5.21354,7.47396L3.18229,7.47396C3.21354,7.11979,3.26042,6.75521,3.29167,6.40104L4.15625,6.40104ZM10.4323,5.55208L12.8802,5.55208C12.625,6.29167,12.2708,6.94792,11.7917,7.53646C11.1354,6.96354,10.6875,6.29167,10.4323,5.55208ZM10.8125,8.43229C10.1094,8.94792,9.24479,9.3125,8.23958,9.55208L8.98958,10.7396C10.1094,10.4479,11.0885,9.98438,11.8854,9.36458C12.6562,9.92188,13.5833,10.401,14.7031,10.8177L15.4531,9.48958C14.4635,9.17188,13.6146,8.78646,12.8958,8.35417C13.5,7.58333,13.9688,6.65625,14.2552,5.55208L15.151,5.55208L15.151,4.23958L11.0365,4.23958C11.1979,3.89062,11.375,3.52083,11.5365,3.13542L10.125,2.81771C9.51562,4.33854,8.79688,5.52083,7.98438,6.35417L8.86458,7.41146C9.10417,7.15625,9.34375,6.89583,9.58333,6.60938C9.86979,7.26562,10.2708,7.875,10.8125,8.43229ZM10.6719,14.8646L9.83854,16.0833C11.3438,16.4323,12.7969,16.9323,14.224,17.5729L15.0573,16.276C13.7292,15.7135,12.2708,15.25,10.6719,14.8646ZM4.97396,14.9323C3.88542,15.4896,2.52604,15.9531,0.859375,16.3073L1.46875,17.5885C3.18229,17.1406,4.63542,16.5938,5.83854,15.9219L4.97396,14.9323ZM20.276,12.1615L24.276,12.1615L24.276,13.2969L20.0312,13.2969L20.0312,14.7083L24.276,14.7083L24.276,15.8438L18.1302,15.8438L18.1302,17.3281L31.7812,17.3281L31.7812,15.8438L25.9688,15.8438L25.9688,14.7083L30.4688,14.7083L30.4688,13.2969L25.9688,13.2969L25.9688,12.1615L31.0573,12.1615L31.0573,10.6927L25.9688,10.6927L25.9688,9.66667L24.276,9.66667L24.276,10.6927L20.9115,10.6927C21.0104,10.401,21.1198,10.099,21.2344,9.79167L19.7292,9.45833C19.1198,11.1875,18.3854,12.5312,17.5365,13.474L18.6406,14.7708C19.2344,14.0521,19.776,13.1875,20.276,12.1615ZM19.4896,3.29688L19.4896,9.25L30.1458,9.25L30.1458,3.29688L19.4896,3.29688ZM28.4844,7.85938L21.1354,7.85938L21.1354,6.93229L28.4844,6.93229L28.4844,7.85938ZM21.1354,5.61979L21.1354,4.70312L28.4844,4.70312L28.4844,5.61979L21.1354,5.61979ZM42.776,2.97917C42.7604,6.05208,42.5365,8.53125,42.1042,10.4479C41.5573,12.724,40.375,14.6406,38.5521,16.2083L39.6875,17.6042C41.8281,15.7969,43.1927,13.5208,43.75,10.7865C43.7812,10.6562,43.7969,10.5156,43.8281,10.3698C44.6927,13.1719,45.8802,15.5729,47.401,17.5573L48.6146,16.1615C46.5677,13.8438,45.125,10.7396,44.3281,6.84896C44.4219,5.66667,44.4688,4.36979,44.4688,2.97917L42.776,2.97917ZM35.8438,2.96354L34.6615,4.11458C35.7969,4.94792,36.6771,5.72917,37.2865,6.46354L38.4375,5.29688C37.7188,4.53125,36.8542,3.74479,35.8438,2.96354ZM33.6198,7.58333L33.6198,9.1875L35.8125,9.1875L35.8125,14.7083C35.8125,15.0573,35.6719,15.3646,35.3802,15.5885L36.0208,17.0729C37.2083,16.3073,38.3073,15.4583,39.349,14.5L38.901,12.7865C38.3906,13.2812,37.8958,13.7292,37.4323,14.1146L37.4323,7.58333L33.6198,7.58333ZM59.8802,5.07292L59.8802,15.5052L58.1562,15.5052L58.1562,7.39583L56.5208,7.39583L56.5208,15.5052L55.0677,15.5052L55.0677,17.1406L65.0052,17.1406L65.0052,15.5052L61.5781,15.5052L61.5781,10.5781L64.4427,10.5781L64.4427,9.02604L61.5781,9.02604L61.5781,5.07292L64.6667,5.07292L64.6667,3.44271L55.5469,3.44271L55.5469,5.07292L59.8802,5.07292ZM52.3958,2.97917L51.224,4.08333C52.3281,4.91146,53.1771,5.71354,53.7865,6.46354L54.9219,5.29688C54.2188,4.53125,53.3854,3.76042,52.3958,2.97917ZM50.1042,7.58333L50.1042,9.1875L52.2812,9.1875L52.2812,14.7083C52.2812,15.0573,52.1354,15.349,51.849,15.5729L52.4896,17.0885C53.5781,16.3385,54.6198,15.4896,55.5938,14.5625L55.1615,12.8021C54.7135,13.25,54.2812,13.651,53.8646,14.0365L53.8646,7.58333L50.1042,7.58333Z" fill="url(#master_svg0_1_03046)" fill-opacity="1"/></g></svg>