<svg width="33" height="22" viewBox="0 0 33 22" fill="none" xmlns="http://www.w3.org/2000/svg">
<path d="M7.5625 18.0615C8.98167 18.0615 10.3613 18.2245 11.7014 18.5506C13.0425 18.8767 14.3713 19.4075 15.6875 20.1431V4.20024C14.5142 3.36282 13.2213 2.73449 11.8086 2.31524C10.397 1.89707 8.98167 1.68799 7.5625 1.68799C6.5875 1.68799 5.73383 1.74595 5.0015 1.86186C4.26917 1.97886 3.45667 2.19553 2.564 2.51186C2.31267 2.59528 2.135 2.71499 2.031 2.87099C1.927 3.02807 1.875 3.20032 1.875 3.38774V18.0371C1.875 18.3296 1.979 18.543 2.187 18.6774C2.39608 18.8128 2.62521 18.829 2.87438 18.7261C3.46804 18.5257 4.15433 18.3648 4.93325 18.2435C5.71108 18.1222 6.5875 18.0615 7.5625 18.0615ZM17.3125 20.1431C18.6287 19.4075 19.9575 18.8767 21.2986 18.5506C22.6387 18.2256 24.0183 18.0631 25.4375 18.0631C26.4125 18.0631 27.2889 18.1232 28.0667 18.2435C28.8457 18.3648 29.532 18.5252 30.1256 18.7245C30.3748 18.8285 30.6039 18.8128 30.813 18.6774C31.021 18.5419 31.125 18.3285 31.125 18.0371V3.38774C31.125 3.20032 31.073 3.03349 30.969 2.88724C30.865 2.74099 30.6879 2.6164 30.4376 2.51349C29.5439 2.19607 28.7308 1.97941 27.9985 1.86349C27.2662 1.74649 26.4125 1.68799 25.4375 1.68799C24.0183 1.68799 22.603 1.89707 21.1914 2.31524C19.7787 2.73449 18.4858 3.36282 17.3125 4.20024V20.1431ZM16.5 21.9907C16.2454 21.9907 16.0114 21.9588 15.798 21.8949C15.5846 21.8309 15.3809 21.7497 15.187 21.6511C14.0062 21.0065 12.7766 20.5179 11.4983 20.1854C10.2177 19.8528 8.90583 19.6865 7.5625 19.6865C6.7175 19.6865 5.88658 19.7574 5.06975 19.8994C4.254 20.0413 3.45992 20.2688 2.6875 20.5819C2.09817 20.8169 1.54458 20.746 1.02675 20.369C0.508917 19.992 0.25 19.4709 0.25 18.8057V3.10011C0.25 2.6982 0.355625 2.32499 0.566875 1.98049C0.778125 1.63707 1.07442 1.39765 1.45575 1.26224C2.41017 0.841905 3.40304 0.536947 4.43437 0.347364C5.46571 0.15778 6.50842 0.0629883 7.5625 0.0629883C9.155 0.0629883 10.7074 0.292114 12.2198 0.750364C13.7332 1.20861 15.1599 1.87486 16.5 2.74911C17.8401 1.87486 19.2668 1.20861 20.7803 0.750364C22.2937 0.292114 23.8461 0.0629883 25.4375 0.0629883C26.4916 0.0629883 27.5343 0.15778 28.5656 0.347364C29.597 0.536947 30.5898 0.841905 31.5442 1.26224C31.9256 1.39765 32.2219 1.63707 32.4331 1.98049C32.6444 2.32499 32.75 2.6982 32.75 3.10011V18.8057C32.75 19.4709 32.4705 19.9812 31.9115 20.3365C31.3514 20.694 30.7556 20.7547 30.124 20.5185C29.3722 20.226 28.6041 20.0147 27.8197 19.8847C27.0354 19.7526 26.2413 19.6865 25.4375 19.6865C24.0942 19.6865 22.7828 19.8528 21.5034 20.1854C20.224 20.5179 18.9938 21.006 17.813 21.6495C17.618 21.7492 17.4143 21.8309 17.202 21.8949C16.9886 21.9588 16.7546 21.9907 16.5 21.9907ZM19.5631 6.54024C19.5631 6.42107 19.6043 6.30082 19.6866 6.17949C19.769 6.05707 19.8665 5.96607 19.9791 5.90649C20.8057 5.53165 21.6794 5.24457 22.6003 5.04524C23.5211 4.84807 24.4668 4.74949 25.4375 4.74949C25.9575 4.74949 26.4504 4.7782 26.9163 4.83561C27.3821 4.89303 27.862 4.97591 28.356 5.08424C28.4957 5.11674 28.6171 5.18986 28.72 5.30361C28.8229 5.4152 28.8744 5.55441 28.8744 5.72124C28.8744 5.99424 28.7931 6.19249 28.6306 6.31599C28.4681 6.43841 28.2504 6.46657 27.9774 6.40049C27.5776 6.31924 27.1681 6.26345 26.7489 6.23311C26.3285 6.20278 25.8914 6.18761 25.4375 6.18761C24.5665 6.18761 23.7145 6.27103 22.8814 6.43786C22.0483 6.6047 21.2575 6.83761 20.5089 7.13661C20.2305 7.24278 20.003 7.24007 19.8264 7.12849C19.6509 7.01582 19.5631 6.81974 19.5631 6.54024ZM19.5631 15.3526C19.5631 15.2334 19.6043 15.1078 19.6866 14.9756C19.769 14.8434 19.8665 14.7476 19.9791 14.688C20.7635 14.3121 21.6372 14.0304 22.6003 13.843C23.5623 13.6556 24.508 13.5619 25.4375 13.5619C25.9575 13.5619 26.4504 13.5906 26.9163 13.648C27.3821 13.7054 27.862 13.7883 28.356 13.8966C28.4957 13.9291 28.6171 14.0022 28.72 14.116C28.8229 14.2276 28.8744 14.3668 28.8744 14.5336C28.8744 14.8066 28.7931 15.0049 28.6306 15.1284C28.4681 15.2508 28.2504 15.2789 27.9774 15.2129C27.5776 15.1316 27.1681 15.0758 26.7489 15.0455C26.3285 15.0152 25.8914 15 25.4375 15C24.5871 15 23.7507 15.0867 22.9285 15.26C22.1052 15.4344 21.3197 15.6819 20.5722 16.0026C20.2927 16.1294 20.0544 16.1277 19.8573 15.9977C19.6612 15.8677 19.5631 15.6527 19.5631 15.3526ZM19.5631 10.9781C19.5631 10.8589 19.6043 10.7387 19.6866 10.6174C19.769 10.4949 19.8665 10.4034 19.9791 10.3427C20.8057 9.96791 21.6794 9.68191 22.6003 9.48474C23.5211 9.28649 24.4668 9.18736 25.4375 9.18736C25.9575 9.18736 26.4504 9.21607 26.9163 9.27349C27.3821 9.3309 27.862 9.41378 28.356 9.52211C28.4957 9.55461 28.6171 9.6272 28.72 9.73986C28.8229 9.85253 28.8744 9.99228 28.8744 10.1591C28.8744 10.4321 28.7931 10.6298 28.6306 10.7522C28.4681 10.8757 28.2504 10.9039 27.9774 10.8367C27.5776 10.7555 27.1681 10.6997 26.7489 10.6694C26.3285 10.6401 25.8914 10.6255 25.4375 10.6255C24.5665 10.6255 23.7145 10.7084 22.8814 10.8741C22.0472 11.0409 21.2564 11.2744 20.5089 11.5745C20.2305 11.6807 20.003 11.6774 19.8264 11.5647C19.6509 11.4532 19.5631 11.2576 19.5631 10.9781Z" fill="#6C727F"/>
</svg>
