<svg width="24" height="24" viewBox="0 0 24 24" fill="none" xmlns="http://www.w3.org/2000/svg">
<path d="M20.5874 3.41244C18.3214 1.14637 14.6544 1.14637 12.391 3.41244L9.79548 6.00798L11.1616 7.37405L13.7571 4.77852C15.1982 3.33744 17.6303 3.18477 19.2214 4.77852C20.8151 6.37227 20.6624 8.80173 19.2214 10.2428L16.6258 12.8383L17.9946 14.2071L20.5901 11.6116C22.8508 9.34548 22.8508 5.67852 20.5874 3.41244ZM10.2455 19.2214C8.80441 20.6624 6.37227 20.8151 4.78119 19.2214C3.18744 17.6276 3.34012 15.1982 4.78119 13.7571L7.37673 11.1616L6.00798 9.7928L3.41244 12.3883C1.14637 14.6544 1.14637 18.3214 3.41244 20.5848C5.67852 22.8482 9.34548 22.8508 11.6089 20.5848L14.2044 17.9892L12.8383 16.6232L10.2455 19.2214ZM5.25798 3.89459C5.21771 3.85471 5.16332 3.83234 5.10664 3.83234C5.04996 3.83234 4.99558 3.85471 4.9553 3.89459L3.89459 4.9553C3.85471 4.99558 3.83234 5.04996 3.83234 5.10664C3.83234 5.16332 3.85471 5.21771 3.89459 5.25798L18.7446 20.108C18.8276 20.191 18.9642 20.191 19.0473 20.108L20.108 19.0473C20.191 18.9642 20.191 18.8276 20.108 18.7446L5.25798 3.89459Z" fill="#6C727F"/>
</svg>
